<?xml version="1.0" encoding="iso-8859-1"?>
<!-- Generator: Adobe Illustrator 19.0.0, SVG Export Plug-In . SVG Version: 6.00 Build 0)  -->
<svg version="1.1" id="Capa_1" xmlns="http://www.w3.org/2000/svg" xmlns:xlink="http://www.w3.org/1999/xlink" x="0px" y="0px"
	 viewBox="0 0 463 463" style="enable-background:new 0 0 463 463;" xml:space="preserve">
<g>
	<path d="M111.5,128H111V15.5C111,6.953,104.047,0,95.5,0h-16C70.953,0,64,6.953,64,15.5V128h-0.5c-8.547,0-15.5,6.953-15.5,15.5v64
		c0,8.547,6.953,15.5,15.5,15.5H64v224.5c0,8.547,6.953,15.5,15.5,15.5h16c8.547,0,15.5-6.953,15.5-15.5V223h0.5
		c8.547,0,15.5-6.953,15.5-15.5v-64C127,134.953,120.047,128,111.5,128z M79,15.5c0-0.276,0.224-0.5,0.5-0.5h16
		c0.276,0,0.5,0.224,0.5,0.5V128H79V15.5z M96,447.5c0,0.276-0.224,0.5-0.5,0.5h-16c-0.276,0-0.5-0.224-0.5-0.5V223h17V447.5z
		 M112,207.5c0,0.276-0.224,0.5-0.5,0.5h-48c-0.276,0-0.5-0.224-0.5-0.5v-64c0-0.276,0.224-0.5,0.5-0.5h48
		c0.276,0,0.5,0.224,0.5,0.5V207.5z"/>
	<path d="M95.5,152h-16c-4.142,0-7.5,3.358-7.5,7.5s3.358,7.5,7.5,7.5h16c4.142,0,7.5-3.358,7.5-7.5S99.642,152,95.5,152z"/>
	<path d="M95.5,176h-16c-4.142,0-7.5,3.358-7.5,7.5s3.358,7.5,7.5,7.5h16c4.142,0,7.5-3.358,7.5-7.5S99.642,176,95.5,176z"/>
	<path d="M207.5,215.996H207V15.5C207,6.953,200.047,0,191.5,0h-16C166.953,0,160,6.953,160,15.5v200.496h-0.5
		c-8.547,0-15.5,6.953-15.5,15.5v64c0,8.547,6.953,15.5,15.5,15.5h0.5V447.5c0,8.547,6.953,15.5,15.5,15.5h16
		c8.547,0,15.5-6.953,15.5-15.5V310.996h0.5c8.547,0,15.5-6.953,15.5-15.5v-64C223,222.949,216.047,215.996,207.5,215.996z
		 M175,15.5c0-0.276,0.224-0.5,0.5-0.5h16c0.276,0,0.5,0.224,0.5,0.5v200.496h-17V15.5z M192,447.5c0,0.276-0.224,0.5-0.5,0.5h-16
		c-0.276,0-0.5-0.224-0.5-0.5V310.996h17V447.5z M208,295.496c0,0.276-0.224,0.5-0.5,0.5h-48c-0.276,0-0.5-0.224-0.5-0.5v-64
		c0-0.276,0.224-0.5,0.5-0.5h48c0.276,0,0.5,0.224,0.5,0.5V295.496z"/>
	<path d="M191.5,239.996h-16c-4.142,0-7.5,3.358-7.5,7.5s3.358,7.5,7.5,7.5h16c4.142,0,7.5-3.358,7.5-7.5
		S195.642,239.996,191.5,239.996z"/>
	<path d="M191.5,263.996h-16c-4.142,0-7.5,3.358-7.5,7.5s3.358,7.5,7.5,7.5h16c4.142,0,7.5-3.358,7.5-7.5
		S195.642,263.996,191.5,263.996z"/>
	<path d="M303.5,39.996H303V15.5C303,6.953,296.047,0,287.5,0h-16C262.953,0,256,6.953,256,15.5v24.496h-0.5
		c-8.547,0-15.5,6.953-15.5,15.5v64c0,8.547,6.953,15.5,15.5,15.5h0.5V447.5c0,8.547,6.953,15.5,15.5,15.5h16
		c8.547,0,15.5-6.953,15.5-15.5V134.996h0.5c8.547,0,15.5-6.953,15.5-15.5v-64C319,46.949,312.047,39.996,303.5,39.996z M271,15.5
		c0-0.276,0.224-0.5,0.5-0.5h16c0.276,0,0.5,0.224,0.5,0.5v24.496h-17V15.5z M288,447.5c0,0.276-0.224,0.5-0.5,0.5h-16
		c-0.276,0-0.5-0.224-0.5-0.5V134.996h17V447.5z M304,119.496c0,0.276-0.224,0.5-0.5,0.5h-48c-0.276,0-0.5-0.224-0.5-0.5v-64
		c0-0.276,0.224-0.5,0.5-0.5h48c0.276,0,0.5,0.224,0.5,0.5V119.496z"/>
	<path d="M287.5,63.996h-16c-4.142,0-7.5,3.358-7.5,7.5s3.358,7.5,7.5,7.5h16c4.142,0,7.5-3.358,7.5-7.5
		S291.642,63.996,287.5,63.996z"/>
	<path d="M287.5,87.996h-16c-4.142,0-7.5,3.358-7.5,7.5s3.358,7.5,7.5,7.5h16c4.142,0,7.5-3.358,7.5-7.5
		S291.642,87.996,287.5,87.996z"/>
	<path d="M399.5,295.996H399V15.5C399,6.953,392.047,0,383.5,0h-16C358.953,0,352,6.953,352,15.5v280.496h-0.5
		c-8.547,0-15.5,6.953-15.5,15.5v64c0,8.547,6.953,15.5,15.5,15.5h0.5V447.5c0,8.547,6.953,15.5,15.5,15.5h16
		c8.547,0,15.5-6.953,15.5-15.5v-56.504h0.5c8.547,0,15.5-6.953,15.5-15.5v-64C415,302.949,408.047,295.996,399.5,295.996z
		 M367,15.5c0-0.276,0.224-0.5,0.5-0.5h16c0.276,0,0.5,0.224,0.5,0.5v280.496h-17V15.5z M384,447.5c0,0.276-0.224,0.5-0.5,0.5h-16
		c-0.276,0-0.5-0.224-0.5-0.5v-56.504h17V447.5z M400,375.496c0,0.276-0.224,0.5-0.5,0.5h-48c-0.276,0-0.5-0.224-0.5-0.5v-64
		c0-0.276,0.224-0.5,0.5-0.5h48c0.276,0,0.5,0.224,0.5,0.5V375.496z"/>
	<path d="M383.5,319.996h-16c-4.142,0-7.5,3.358-7.5,7.5s3.358,7.5,7.5,7.5h16c4.142,0,7.5-3.358,7.5-7.5
		S387.642,319.996,383.5,319.996z"/>
	<path d="M383.5,343.996h-16c-4.142,0-7.5,3.358-7.5,7.5s3.358,7.5,7.5,7.5h16c4.142,0,7.5-3.358,7.5-7.5
		S387.642,343.996,383.5,343.996z"/>
</g>
<g>
</g>
<g>
</g>
<g>
</g>
<g>
</g>
<g>
</g>
<g>
</g>
<g>
</g>
<g>
</g>
<g>
</g>
<g>
</g>
<g>
</g>
<g>
</g>
<g>
</g>
<g>
</g>
<g>
</g>
</svg>
