<?xml version="1.0" encoding="iso-8859-1"?>
<!-- Generator: Adobe Illustrator 19.0.0, SVG Export Plug-In . SVG Version: 6.00 Build 0)  -->
<svg version="1.1" id="Layer_1" xmlns="http://www.w3.org/2000/svg" xmlns:xlink="http://www.w3.org/1999/xlink" x="0px" y="0px"
	 viewBox="0 0 512 512" style="enable-background:new 0 0 512 512;" xml:space="preserve">
<g>
	<g>
		<g>
			<path d="M196.267,170.667h119.467c9.404,0,17.067-7.654,17.067-17.067V17.067C332.8,7.654,325.137,0,315.733,0H196.267
				C186.854,0,179.2,7.654,179.2,17.067V153.6C179.2,163.012,186.854,170.667,196.267,170.667z M196.267,17.067h119.467
				l0.009,136.533H196.267V17.067z"/>
			<path d="M221.867,68.267H256c4.71,0,8.533-3.823,8.533-8.533c0-4.719-3.823-8.533-8.533-8.533h-34.133
				c-4.719,0-8.533,3.814-8.533,8.533C213.333,64.444,217.148,68.267,221.867,68.267z"/>
			<path d="M110.933,460.8H42.667c-4.719,0-8.533,3.814-8.533,8.533c0,4.71,3.814,8.533,8.533,8.533h68.267
				c4.71,0,8.533-3.823,8.533-8.533C119.467,464.614,115.644,460.8,110.933,460.8z"/>
			<path d="M42.667,409.6H76.8c4.71,0,8.533-3.823,8.533-8.533c0-4.719-3.823-8.533-8.533-8.533H42.667
				c-4.719,0-8.533,3.814-8.533,8.533C34.133,405.777,37.948,409.6,42.667,409.6z"/>
			<path d="M290.133,85.333h-68.267c-4.719,0-8.533,3.814-8.533,8.533c0,4.71,3.814,8.533,8.533,8.533h68.267
				c4.71,0,8.533-3.823,8.533-8.533C298.667,89.148,294.844,85.333,290.133,85.333z"/>
			<path d="M290.133,119.467h-68.267c-4.719,0-8.533,3.814-8.533,8.533c0,4.71,3.814,8.533,8.533,8.533h68.267
				c4.71,0,8.533-3.823,8.533-8.533C298.667,123.281,294.844,119.467,290.133,119.467z"/>
			<path d="M469.333,426.667h-68.267c-4.719,0-8.533,3.814-8.533,8.533c0,4.71,3.814,8.533,8.533,8.533h68.267
				c4.71,0,8.533-3.823,8.533-8.533C477.867,430.481,474.044,426.667,469.333,426.667z"/>
			<path d="M110.933,426.667H42.667c-4.719,0-8.533,3.814-8.533,8.533c0,4.71,3.814,8.533,8.533,8.533h68.267
				c4.71,0,8.533-3.823,8.533-8.533C119.467,430.481,115.644,426.667,110.933,426.667z"/>
			<path d="M401.067,409.6H435.2c4.71,0,8.533-3.823,8.533-8.533c0-4.719-3.823-8.533-8.533-8.533h-34.133
				c-4.719,0-8.533,3.814-8.533,8.533C392.533,405.777,396.348,409.6,401.067,409.6z"/>
			<path d="M494.933,341.333H375.467c-9.412,0-17.067,7.654-17.067,17.067v136.533c0,9.412,7.654,17.067,17.067,17.067h119.467
				c9.404,0,17.067-7.654,17.067-17.067V358.4C512,348.988,504.337,341.333,494.933,341.333z M375.467,494.933V358.4h119.467
				l0.009,136.533H375.467z"/>
			<path d="M469.333,460.8h-68.267c-4.719,0-8.533,3.814-8.533,8.533c0,4.71,3.814,8.533,8.533,8.533h68.267
				c4.71,0,8.533-3.823,8.533-8.533C477.867,464.614,474.044,460.8,469.333,460.8z"/>
			<path d="M136.533,341.333H17.067C7.654,341.333,0,348.988,0,358.4v136.533C0,504.346,7.654,512,17.067,512h119.467
				c9.404,0,17.067-7.654,17.067-17.067V358.4C153.6,348.988,145.937,341.333,136.533,341.333z M17.067,494.933V358.4h119.467
				l0.009,136.533H17.067z"/>
			<path d="M342.605,320.836l-78.071-44.211v-80.358c0-4.719-3.823-8.533-8.533-8.533c-4.719,0-8.533,3.814-8.533,8.533v80.333
				l-78.848,44.22c-4.104,2.304-5.572,7.509-3.26,11.622c1.562,2.782,4.463,4.352,7.45,4.352c1.417,0,2.842-0.35,4.164-1.092
				l79.002-44.305l78.216,44.288c1.331,0.759,2.773,1.109,4.198,1.109c2.978,0,5.862-1.553,7.433-4.326
				C348.143,328.371,346.709,323.157,342.605,320.836z"/>
		</g>
	</g>
</g>
<g>
</g>
<g>
</g>
<g>
</g>
<g>
</g>
<g>
</g>
<g>
</g>
<g>
</g>
<g>
</g>
<g>
</g>
<g>
</g>
<g>
</g>
<g>
</g>
<g>
</g>
<g>
</g>
<g>
</g>
</svg>
